<svg width="24" height="24" viewBox="0 0 24 24" fill="none" xmlns="http://www.w3.org/2000/svg">
<path d="M12 11.7317C11.175 11.7317 10.4688 11.4208 9.88125 10.7992C9.29375 10.1775 9 9.43021 9 8.55725C9 7.68427 9.29375 6.93695 9.88125 6.3153C10.4688 5.69364 11.175 5.38281 12 5.38281C12.825 5.38281 13.5312 5.69364 14.1188 6.3153C14.7063 6.93695 15 7.68427 15 8.55725C15 9.43021 14.7063 10.1775 14.1188 10.7992C13.5312 11.4208 12.825 11.7317 12 11.7317ZM5 19.3828V17.6409C5 17.2041 5.12019 16.7954 5.36058 16.4149C5.60096 16.0344 5.92436 15.739 6.33078 15.5287C7.27436 15.0499 8.21858 14.6907 9.16345 14.4513C10.1083 14.2118 11.0539 14.0921 12 14.0921C12.9462 14.0921 13.8917 14.2118 14.8365 14.4513C15.7814 14.6907 16.7256 15.0499 17.6692 15.5287C18.0756 15.739 18.399 16.0344 18.6394 16.4149C18.8798 16.7954 19 17.2041 19 17.6409V19.3828H5ZM6 18.3246H18V17.6409C18 17.4063 17.9285 17.1858 17.7856 16.9796C17.6426 16.7734 17.4449 16.5991 17.1923 16.4566C16.3692 16.0347 15.5206 15.7115 14.6464 15.487C13.7722 15.2625 12.8901 15.1502 12 15.1502C11.1099 15.1502 10.2278 15.2625 9.3536 15.487C8.4794 15.7115 7.63077 16.0347 6.8077 16.4566C6.55513 16.5991 6.35737 16.7734 6.21442 16.9796C6.07147 17.1858 6 17.4063 6 17.6409V18.3246ZM12 10.6735C12.55 10.6735 13.0208 10.4663 13.4125 10.0519C13.8042 9.63743 14 9.13923 14 8.55725C14 7.97527 13.8042 7.47707 13.4125 7.06263C13.0208 6.64819 12.55 6.44098 12 6.44098C11.45 6.44098 10.9792 6.64819 10.5875 7.06263C10.1958 7.47707 10 7.97527 10 8.55725C10 9.13923 10.1958 9.63743 10.5875 10.0519C10.9792 10.4663 11.45 10.6735 12 10.6735Z" fill="#8C8C8C"/>
</svg>
