<svg width="24" height="24" viewBox="0 0 24 24" fill="none" xmlns="http://www.w3.org/2000/svg">
<path d="M12 11.7317C11.175 11.7317 10.4688 11.4208 9.88125 10.7992C9.29375 10.1775 9 9.43021 9 8.55725C9 7.68427 9.29375 6.93695 9.88125 6.3153C10.4688 5.69364 11.175 5.38281 12 5.38281C12.825 5.38281 13.5312 5.69364 14.1188 6.3153C14.7063 6.93695 15 7.68427 15 8.55725C15 9.43021 14.7063 10.1775 14.1188 10.7992C13.5312 11.4208 12.825 11.7317 12 11.7317ZM5 19.3828V17.6409C5 17.2041 5.12019 16.7954 5.36058 16.4149C5.60096 16.0344 5.92436 15.739 6.33078 15.5287C7.27436 15.0499 8.21858 14.6907 9.16345 14.4513C10.1083 14.2118 11.0539 14.0921 12 14.0921C12.9462 14.0921 13.8917 14.2118 14.8365 14.4513C15.7814 14.6907 16.7256 15.0499 17.6692 15.5287C18.0756 15.739 18.399 16.0344 18.6394 16.4149C18.8798 16.7954 19 17.2041 19 17.6409V19.3828H5Z" fill="#FDFCFB"/>
</svg>
