<svg width="24" height="24" viewBox="0 0 24 24" fill="none" xmlns="http://www.w3.org/2000/svg">
<path d="M12.0034 21C10.7588 21 9.58872 20.7638 8.4931 20.2915C7.39748 19.8192 6.44444 19.1782 5.63397 18.3685C4.82352 17.5588 4.18192 16.6066 3.70915 15.512C3.23638 14.4174 3 13.2479 3 12.0034C3 10.7588 3.23616 9.58872 3.70848 8.4931C4.18081 7.39748 4.82183 6.44444 5.63153 5.63398C6.44123 4.82353 7.39337 4.18192 8.48795 3.70915C9.58255 3.23638 10.7521 3 11.9966 3C13.2412 3 14.4113 3.23616 15.5069 3.70847C16.6025 4.18081 17.5556 4.82182 18.366 5.63152C19.1765 6.44122 19.8181 7.39337 20.2908 8.48795C20.7636 9.58255 21 10.7521 21 11.9966C21 13.2412 20.7638 14.4113 20.2915 15.5069C19.8192 16.6025 19.1782 17.5556 18.3685 18.366C17.5588 19.1765 16.6066 19.8181 15.512 20.2909C14.4174 20.7636 13.2479 21 12.0034 21ZM9.1 19.45L10.8384 15.5077C10.2901 15.3169 9.81675 15.0211 9.4185 14.6203C9.02027 14.2196 8.72435 13.7462 8.53075 13.2L4.51155 14.85C4.9077 15.9167 5.50578 16.85 6.30578 17.65C7.10578 18.45 8.03718 19.05 9.1 19.45ZM8.53075 10.8C8.6987 10.2538 8.98557 9.78878 9.39135 9.4048C9.79712 9.02083 10.2667 8.72948 10.8 8.53075L9.15 4.51155C8.07052 4.92437 7.13077 5.53078 6.33078 6.33078C5.53078 7.13078 4.92437 8.07052 4.51155 9.15L8.53075 10.8ZM11.9955 14.6923C12.7421 14.6923 13.3782 14.431 13.9038 13.9084C14.4295 13.3857 14.6923 12.7511 14.6923 12.0045C14.6923 11.2579 14.431 10.6218 13.9084 10.0962C13.3857 9.57052 12.7511 9.3077 12.0045 9.3077C11.2579 9.3077 10.6218 9.56901 10.0962 10.0916C9.57052 10.6143 9.3077 11.2489 9.3077 11.9955C9.3077 12.7421 9.56901 13.3782 10.0916 13.9038C10.6143 14.4295 11.2489 14.6923 11.9955 14.6923ZM14.9 19.45C15.95 19.05 16.8708 18.4542 17.6625 17.6625C18.4542 16.8708 19.05 15.95 19.45 14.9L15.5077 13.1616C15.3346 13.6949 15.0474 14.1612 14.6462 14.5606C14.2449 14.9599 13.7795 15.2628 13.25 15.4692L14.9 19.45ZM15.4693 10.75L19.45 9.1C19.05 8.05 18.4542 7.12917 17.6625 6.3375C16.8708 5.54583 15.95 4.95 14.9 4.55L13.25 8.5423C13.7538 8.75383 14.1981 9.04646 14.5827 9.42018C14.9673 9.79391 15.2628 10.2372 15.4693 10.75Z" fill="#FDFCFB"/>
</svg>
