<svg width="24" height="24" viewBox="0 0 24 24" fill="none" xmlns="http://www.w3.org/2000/svg">
<path d="M12 19.6523L11.2423 18.9677C9.61025 17.4766 8.26025 16.2004 7.1923 15.1388C6.12435 14.0773 5.2814 13.1411 4.66345 12.3302C4.0455 11.5193 3.61378 10.7856 3.36828 10.1292C3.12276 9.4728 3 8.81254 3 8.14844C3 6.87664 3.43205 5.80869 4.29615 4.94459C5.16025 4.08049 6.2282 3.64844 7.5 3.64844C8.37948 3.64844 9.20448 3.87344 9.975 4.32344C10.7455 4.77344 11.4205 5.42792 12 6.28689C12.5795 5.42792 13.2545 4.77344 14.025 4.32344C14.7955 3.87344 15.6205 3.64844 16.5 3.64844C17.7718 3.64844 18.8398 4.08049 19.7038 4.94459C20.5679 5.80869 21 6.87664 21 8.14844C21 8.81254 20.8772 9.4728 20.6317 10.1292C20.3862 10.7856 19.9545 11.5193 19.3365 12.3302C18.7186 13.1411 17.8789 14.0773 16.8173 15.1388C15.7558 16.2004 14.4026 17.4766 12.7577 18.9677L12 19.6523ZM12 18.2984C13.6 16.8523 14.9167 15.6135 15.95 14.5821C16.9833 13.5507 17.8 12.6558 18.4 11.8975C19 11.1392 19.4167 10.4674 19.65 9.88209C19.8833 9.29684 20 8.71895 20 8.14844C20 7.14844 19.6667 6.3151 19 5.64844C18.3333 4.98177 17.5 4.64844 16.5 4.64844C15.7038 4.64844 14.9692 4.87568 14.2962 5.33016C13.6231 5.78465 13.0205 6.46895 12.4885 7.38306H11.5115C10.9667 6.45613 10.3609 5.76863 9.69423 5.32056C9.02756 4.87248 8.29615 4.64844 7.5 4.64844C6.51282 4.64844 5.68269 4.98177 5.00962 5.64844C4.33654 6.3151 4 7.14844 4 8.14844C4 8.71895 4.11667 9.29684 4.35 9.88209C4.58333 10.4674 5 11.1392 5.6 11.8975C6.2 12.6558 7.01667 13.5475 8.05 14.5725C9.08333 15.5975 10.4 16.8395 12 18.2984Z" fill="#8C8C8C"/>
</svg>
