<svg width="24" height="24" viewBox="0 0 24 24" fill="none" xmlns="http://www.w3.org/2000/svg">
<path d="M5.61538 22.7008C5.15513 22.7008 4.77083 22.5466 4.4625 22.2383C4.15417 21.9299 4 21.5457 4 21.0854V8.31616C4 7.85591 4.15417 7.47161 4.4625 7.16328C4.77083 6.85495 5.15513 6.70078 5.61538 6.70078H13.7712L12.7712 7.70078H5.61538C5.46154 7.70078 5.32052 7.76488 5.1923 7.89308C5.0641 8.0213 5 8.16232 5 8.31616V21.0854C5 21.2392 5.0641 21.3803 5.1923 21.5085C5.32052 21.6367 5.46154 21.7008 5.61538 21.7008H18.3846C18.5385 21.7008 18.6795 21.6367 18.8077 21.5085C18.9359 21.3803 19 21.2392 19 21.0854V13.9239L20 12.9239V21.0854C20 21.5457 19.8458 21.9299 19.5375 22.2383C19.2292 22.5466 18.8449 22.7008 18.3846 22.7008H5.61538ZM16.8865 6.96808L17.6192 7.67578L11 14.2758V15.7008H12.4L19.0635 9.07578L19.7577 9.76426L12.8462 16.7008H10V13.8546L16.8865 6.96808ZM19.7577 9.76426L16.8865 6.96808L18.9635 4.89116C19.2737 4.58091 19.6567 4.42578 20.1125 4.42578C20.5683 4.42578 20.9494 4.58731 21.2558 4.91038L21.8096 5.45078C22.116 5.77001 22.2693 6.15014 22.2693 6.59116C22.2693 7.03219 22.1096 7.41232 21.7904 7.73156L19.7577 9.76426Z" fill="#FDFCFB"/>
</svg>
