<svg width="24" height="24" viewBox="0 0 24 24" fill="none" xmlns="http://www.w3.org/2000/svg">
<path d="M17.4615 20.8086H7.42308V9.29183L13.6923 2.80859L14.1346 3.2717C14.2256 3.36699 14.3022 3.48914 14.3644 3.63814C14.4266 3.78713 14.4577 3.92404 14.4577 4.04887V4.21398L13.4346 9.29183H20.3846C20.8026 9.29183 21.1763 9.46431 21.5058 9.80927C21.8353 10.1542 22 10.5455 22 10.9831V12.2717C22 12.367 21.9897 12.471 21.9692 12.5838C21.9487 12.6965 21.9218 12.8005 21.8885 12.8958L19.1577 19.673C19.0205 19.9952 18.7898 20.265 18.4654 20.4824C18.141 20.6999 17.8064 20.8086 17.4615 20.8086ZM8.42308 19.7616H17.4615C17.6026 19.7616 17.7468 19.7213 17.8942 19.6408C18.0417 19.5603 18.1538 19.426 18.2308 19.2381L21 12.4328V10.9831C21 10.7952 20.9423 10.6408 20.8269 10.52C20.7115 10.3992 20.5641 10.3388 20.3846 10.3388H12.1923L13.35 4.62068L8.42308 9.73881V19.7616ZM7.42308 9.29183V10.3388H4V19.7616H7.42308V20.8086H3V9.29183H7.42308Z" fill="#FDFCFB"/>
</svg>
