<svg width="24" height="24" viewBox="0 0 24 24" fill="none" xmlns="http://www.w3.org/2000/svg">
<path d="M12 14.2692L16.0769 11.6923L12 9.11538V14.2692ZM3.61538 20.1923C3.15513 20.1923 2.77083 20.0382 2.4625 19.7298C2.15417 19.4215 2 19.0372 2 18.5769V9.42307H3V18.5769C3 18.7308 3.0641 18.8718 3.1923 19C3.32052 19.1282 3.46154 19.1923 3.61538 19.1923H18.5V20.1923H3.61538ZM6.61538 17.1923C6.15512 17.1923 5.77083 17.0382 5.4625 16.7298C5.15417 16.4215 5 16.0372 5 15.5769V6.1923H10.3077V4.61537C10.3077 4.15512 10.4619 3.77083 10.7702 3.4625C11.0785 3.15417 11.4628 3 11.9231 3H15.0769C15.5372 3 15.9215 3.15417 16.2298 3.4625C16.5382 3.77083 16.6923 4.15512 16.6923 4.61537V6.1923H22V15.5769C22 16.0372 21.8458 16.4215 21.5375 16.7298C21.2292 17.0382 20.8449 17.1923 20.3846 17.1923H6.61538ZM6.61538 16.1923H20.3846C20.5385 16.1923 20.6795 16.1282 20.8077 16C20.9359 15.8718 21 15.7308 21 15.5769V7.1923H6V15.5769C6 15.7308 6.06411 15.8718 6.19233 16C6.32052 16.1282 6.46154 16.1923 6.61538 16.1923ZM11.3077 6.1923H15.6923V4.61537C15.6923 4.46152 15.6282 4.3205 15.5 4.1923C15.3718 4.0641 15.2308 4 15.0769 4H11.9231C11.7692 4 11.6282 4.0641 11.5 4.1923C11.3718 4.3205 11.3077 4.46152 11.3077 4.61537V6.1923Z" fill="#FDFCFB"/>
</svg>
