<svg width="24" height="24" viewBox="0 0 24 24" fill="none" xmlns="http://www.w3.org/2000/svg">
<path d="M19.1175 19.7695L13.003 13.655C12.5147 14.0706 11.9532 14.3924 11.3185 14.6202C10.6837 14.8481 10.0458 14.962 9.40483 14.962C7.84077 14.962 6.51705 14.4206 5.43368 13.3378C4.35029 12.2551 3.80859 10.9321 3.80859 9.36883C3.80859 7.80561 4.34999 6.48159 5.43277 5.39676C6.51556 4.31194 7.83856 3.76953 9.40178 3.76953C10.965 3.76953 12.289 4.31122 13.3738 5.39459C14.4587 6.47797 15.0011 7.80169 15.0011 9.36578C15.0011 10.0443 14.8809 10.701 14.6405 11.3357C14.4001 11.9705 14.0847 12.5132 13.694 12.9639L19.8086 19.0784L19.1175 19.7695ZM9.40483 13.9855C10.7006 13.9855 11.7945 13.5395 12.6865 12.6475C13.5785 11.7554 14.0245 10.6615 14.0245 9.36578C14.0245 8.07001 13.5785 6.97611 12.6865 6.08409C11.7945 5.19207 10.7006 4.74606 9.40483 4.74606C8.10907 4.74606 7.01517 5.19207 6.12315 6.08409C5.23114 6.97611 4.78514 8.07001 4.78514 9.36578C4.78514 10.6615 5.23114 11.7554 6.12315 12.6475C7.01517 13.5395 8.10907 13.9855 9.40483 13.9855Z" fill="#8C8C8C"/>
</svg>
