<svg width="24" height="24" viewBox="0 0 24 24" fill="none" xmlns="http://www.w3.org/2000/svg">
<path d="M12.6914 11.3328C13.0594 10.9405 13.318 10.486 13.4674 9.96936C13.6167 9.4527 13.6914 8.92386 13.6914 8.38284C13.6914 7.84181 13.6167 7.31295 13.4674 6.79629C13.318 6.27962 13.0594 5.82513 12.6914 5.43281C13.4478 5.50205 14.0728 5.81871 14.5664 6.38281C15.06 6.94693 15.3068 7.61361 15.3068 8.38284C15.3068 9.15206 15.06 9.81872 14.5664 10.3828C14.0728 10.9469 13.4478 11.2636 12.6914 11.3328ZM17.6914 18.6136V16.9213C17.6914 16.431 17.603 15.9645 17.426 15.5218C17.2491 15.0792 16.9696 14.7136 16.5876 14.4251C17.2709 14.6354 17.8949 14.9363 18.4597 15.328C19.0244 15.7197 19.3068 16.2508 19.3068 16.9213V18.6136H17.6914ZM19.3068 12.4982V10.4982H17.3068V9.49821H19.3068V7.49821H20.3068V9.49821H22.3068V10.4982H20.3068V12.4982H19.3068ZM8.69141 11.3828C7.86641 11.3828 7.16016 11.0891 6.57266 10.5016C5.98516 9.91409 5.69141 9.20784 5.69141 8.38284C5.69141 7.55782 5.98516 6.85156 6.57266 6.26406C7.16016 5.67656 7.86641 5.38281 8.69141 5.38281C9.51641 5.38281 10.2227 5.67656 10.8102 6.26406C11.3977 6.85156 11.6914 7.55782 11.6914 8.38284C11.6914 9.20784 11.3977 9.91409 10.8102 10.5016C10.2227 11.0891 9.51641 11.3828 8.69141 11.3828ZM1.69141 18.6136V16.9674C1.69141 16.5546 1.8116 16.1684 2.05198 15.8088C2.29236 15.4492 2.61576 15.17 3.02218 14.9713C3.96576 14.5187 4.90999 14.1793 5.85486 13.953C6.79974 13.7267 7.74526 13.6136 8.69141 13.6136C9.63756 13.6136 10.5831 13.7267 11.528 13.953C12.4728 14.1793 13.4171 14.5187 14.3607 14.9713C14.7671 15.17 15.0904 15.4492 15.3308 15.8088C15.5712 16.1684 15.6914 16.5546 15.6914 16.9674V18.6136H1.69141ZM8.69141 10.3828C9.24141 10.3828 9.71224 10.187 10.1039 9.79534C10.4956 9.40367 10.6914 8.93284 10.6914 8.38284C10.6914 7.83284 10.4956 7.36201 10.1039 6.97034C9.71224 6.57867 9.24141 6.38284 8.69141 6.38284C8.14141 6.38284 7.67057 6.57867 7.27891 6.97034C6.88724 7.36201 6.69141 7.83284 6.69141 8.38284C6.69141 8.93284 6.88724 9.40367 7.27891 9.79534C7.67057 10.187 8.14141 10.3828 8.69141 10.3828ZM2.69141 17.6136H14.6914V16.9674C14.6914 16.7457 14.6199 16.5373 14.477 16.3424C14.334 16.1476 14.1363 15.9828 13.8837 15.8482C13.0606 15.4495 12.212 15.144 11.3378 14.9319C10.4636 14.7197 9.58149 14.6136 8.69141 14.6136C7.80132 14.6136 6.91919 14.7197 6.04501 14.9319C5.17081 15.144 4.32217 15.4495 3.49911 15.8482C3.24654 15.9828 3.04878 16.1476 2.90583 16.3424C2.76288 16.5373 2.69141 16.7457 2.69141 16.9674V17.6136Z" fill="#FDFCFB"/>
</svg>
