<svg width="24" height="24" viewBox="0 0 24 24" fill="none" xmlns="http://www.w3.org/2000/svg">
<path d="M2.59766 18.6136V16.9674C2.59766 16.5033 2.71785 16.1043 2.95823 15.7703C3.19861 15.4364 3.52166 15.1694 3.92736 14.9696C4.79474 14.5566 5.65599 14.2274 6.51111 13.9819C7.36624 13.7363 8.39509 13.6136 9.59766 13.6136C10.8002 13.6136 11.8291 13.7363 12.6842 13.9819C13.5393 14.2274 14.4006 14.5566 15.268 14.9696C15.6737 15.1694 15.9967 15.4364 16.2371 15.7703C16.4775 16.1043 16.5977 16.5033 16.5977 16.9674V18.6136H2.59766ZM18.5977 18.6136V16.9213C18.5977 16.3418 18.4804 15.7948 18.2458 15.2803C18.0112 14.7658 17.6785 14.3243 17.2477 13.9559C17.7387 14.0559 18.2118 14.1947 18.6669 14.3722C19.122 14.5498 19.572 14.7495 20.0169 14.9713C20.4502 15.1892 20.79 15.4681 21.0361 15.808C21.2823 16.1479 21.4054 16.519 21.4054 16.9213V18.6136H18.5977ZM9.59766 11.3828C8.77266 11.3828 8.06641 11.0891 7.47891 10.5016C6.89141 9.91409 6.59766 9.20784 6.59766 8.38284C6.59766 7.55782 6.89141 6.85156 7.47891 6.26406C8.06641 5.67656 8.77266 5.38281 9.59766 5.38281C10.4227 5.38281 11.1289 5.67656 11.7164 6.26406C12.3039 6.85156 12.5977 7.55782 12.5977 8.38284C12.5977 9.20784 12.3039 9.91409 11.7164 10.5016C11.1289 11.0891 10.4227 11.3828 9.59766 11.3828ZM16.8669 8.38284C16.8669 9.20784 16.5732 9.91409 15.9857 10.5016C15.3982 11.0891 14.6919 11.3828 13.8669 11.3828C13.8246 11.3828 13.7707 11.378 13.7054 11.3684C13.64 11.3588 13.5861 11.3482 13.5438 11.3367C13.8826 10.9218 14.1429 10.4615 14.3248 9.95581C14.5067 9.45015 14.5977 8.92502 14.5977 8.38044C14.5977 7.83587 14.5025 7.31551 14.3121 6.81936C14.1217 6.32321 13.8656 5.85975 13.5438 5.42896C13.5977 5.40975 13.6515 5.39725 13.7054 5.39146C13.7592 5.3857 13.8131 5.38281 13.8669 5.38281C14.6919 5.38281 15.3982 5.67656 15.9857 6.26406C16.5732 6.85156 16.8669 7.55782 16.8669 8.38284ZM3.59766 17.6136H15.5977V16.9674C15.5977 16.7328 15.539 16.5277 15.4217 16.3521C15.3044 16.1764 15.0938 16.0085 14.79 15.8482C14.0438 15.4495 13.2573 15.144 12.4304 14.9319C11.6034 14.7197 10.6592 14.6136 9.59766 14.6136C8.53612 14.6136 7.59189 14.7197 6.76496 14.9319C5.93804 15.144 5.15151 15.4495 4.40536 15.8482C4.10151 16.0085 3.89092 16.1764 3.77361 16.3521C3.65631 16.5277 3.59766 16.7328 3.59766 16.9674V17.6136ZM9.59766 10.3828C10.1477 10.3828 10.6185 10.187 11.0102 9.79534C11.4018 9.40367 11.5977 8.93284 11.5977 8.38284C11.5977 7.83284 11.4018 7.36201 11.0102 6.97034C10.6185 6.57867 10.1477 6.38284 9.59766 6.38284C9.04766 6.38284 8.57682 6.57867 8.18516 6.97034C7.79349 7.36201 7.59766 7.83284 7.59766 8.38284C7.59766 8.93284 7.79349 9.40367 8.18516 9.79534C8.57682 10.187 9.04766 10.3828 9.59766 10.3828Z" fill="#FDFCFB"/>
</svg>
