<svg width="24" height="24" viewBox="0 0 24 24" fill="none" xmlns="http://www.w3.org/2000/svg">
<path d="M19.2474 20.8633L13.0336 14.6474C12.5475 15.0238 11.9871 15.3225 11.3521 15.5433C10.7172 15.7642 10.0385 15.8747 9.31608 15.8747C7.50092 15.8747 5.9632 15.2443 4.70292 13.9836C3.44264 12.7229 2.8125 11.1847 2.8125 9.36898C2.8125 7.55323 3.44264 6.01501 4.70292 4.75432C5.9632 3.49363 7.50092 2.86328 9.31608 2.86328C11.1312 2.86328 12.669 3.49363 13.9292 4.75432C15.1895 6.01501 15.8197 7.55323 15.8197 9.36898C15.8197 10.0956 15.7093 10.7745 15.4884 11.4057C15.2676 12.0369 14.9691 12.5937 14.5927 13.076L20.8125 19.3036L19.2474 20.8633ZM9.31608 13.6449C10.5057 13.6449 11.5155 13.2297 12.3455 12.3994C13.1756 11.5692 13.5906 10.559 13.5906 9.36898C13.5906 8.17895 13.1756 7.1688 12.3455 6.33852C11.5155 5.50824 10.5057 5.09311 9.31608 5.09311C8.12644 5.09311 7.11662 5.50824 6.28661 6.33852C5.4566 7.1688 5.0416 8.17895 5.0416 9.36898C5.0416 10.559 5.4566 11.5692 6.28661 12.3994C7.11662 13.2297 8.12644 13.6449 9.31608 13.6449Z" fill="#FDFCFB"/>
</svg>
